<svg height='300px' width='300px' fill="#000000" xmlns="http://www.w3.org/2000/svg"
     version="1.1" x="0px" y="0px" viewBox="10 10 80 80"
     style="enable-background:new 0 0 100 100;" xml:space="preserve">
    <g>
        <path d="M24,37.7h0.8v41.5c0,5.5,4.5,10,10,10h30.4c5.5,0,10-4.5,10-10V37.7H76c2.8,0,5-2.2,5-5v-8.2c0-2.8-2.2-5-5-5H63.6v-3.1   c0-3-2.5-5.5-5.5-5.5H41.9c-3,0-5.5,2.5-5.5,5.5v3.1H24c-2.8,0-5,2.2-5,5v8.2C19,35.4,21.3,37.7,24,37.7z M71.2,79.2   c0,3.3-2.7,6-6,6H34.8c-3.3,0-6-2.7-6-6V37.7h42.4V79.2z M40.4,16.4c0-0.8,0.7-1.5,1.5-1.5h16.1c0.8,0,1.5,0.7,1.5,1.5v3.1H40.4   V16.4z M23,24.5c0-0.6,0.4-1,1-1H76c0.6,0,1,0.4,1,1v8.2c0,0.6-0.4,1-1,1H24c-0.6,0-1-0.4-1-1V24.5z"/>
        <rect x="58.3" y="46.3" width="4" height="29.2"/>
        <rect x="48" y="46.3" width="4" height="29.2"/>
        <rect x="37.7" y="46.3" width="4" height="29.2"/>
    </g>
</svg>